<?xml version="1.0" encoding="UTF-8" standalone="no" ?>
<!DOCTYPE svg PUBLIC "-//W3C//DTD SVG 1.1//EN" "http://www.w3.org/Graphics/SVG/1.1/DTD/svg11.dtd">
<svg width="842" height="596" viewBox="0 0 842 596" version="1.1" xmlns="http://www.w3.org/2000/svg" xmlns:xlink="http://www.w3.org/1999/xlink" xml:space="preserve" xml:name="">
  <defs>
    <clipPath id="path0">
      <path d="M0.0 0.0 L0.0 595.276 841.89 595.276 841.89 0.0 0.0 0.0 Z" clip-rule="evenodd"/>
    </clipPath>
  </defs>
  <g transform="matrix(1.0 0.0 -0.0 -1.0 0.0 595.276) ">
    <g clip-path="url(#path0)" id="">
      <g id="Layer_1">
        <path d="M540.8814 340.0746 C554.8191 325.9971 569.6784 311.7954 583.8317 295.678 600.3725 276.8418 620.9353 251.0653 620.6048 215.4582 620.2809 180.5562 600.1189 155.3529 583.8317 136.8055 569.6784 120.6881 554.8191 106.4864 540.8814 92.4089 526.9827 78.65 512.781 63.7907 496.6636 49.6374 477.8274 33.0966 452.0509 12.5338 416.4438 12.8643 381.5418 13.1882 356.3385 33.3502 337.7911 49.6374 321.6737 63.7907 307.472 78.65 293.3945 92.5877 279.6357 106.4864 264.7764 120.6881 250.623 136.8055 234.0822 155.6417 213.5195 181.4182 213.8499 217.0253 214.1738 251.9273 234.3358 277.1306 250.623 295.678 264.7764 311.7954 279.6357 325.9971 293.5733 340.0746 307.472 353.8335 321.6737 368.6928 337.7911 382.8461 356.6273 399.3869 382.4038 419.9496 418.011 419.6192 452.9129 419.2953 478.1162 399.1333 496.6636 382.8461 512.781 368.6928 526.9827 353.8335 540.8814 340.0746 Z M505.5265 304.7197 C491.1817 318.9184 477.6307 333.0178 463.6717 345.2757 447.4179 359.5488 430.9449 369.497 417.5469 369.6213 403.9983 369.7471 387.2867 359.7682 370.7831 345.2757 356.824 333.0178 343.273 318.9184 328.7494 304.5409 314.5508 290.1961 300.4513 276.6451 288.1934 262.6861 273.9203 246.4323 263.9721 229.9592 263.8478 216.5613 263.722 203.0127 273.7009 186.3011 288.1934 169.7974 300.4513 155.8384 314.5508 142.2874 328.9282 127.7638 343.273 113.5651 356.824 99.4657 370.7831 87.2077 387.0368 72.9347 403.5099 62.9865 416.9078 62.8622 430.4564 62.7364 447.168 72.7153 463.6717 87.2077 477.6307 99.4657 491.1817 113.5651 505.7053 127.9426 519.904 142.2874 534.0034 155.8384 546.2614 169.7974 560.5344 186.0512 570.4826 202.5242 570.607 215.9222 570.7327 229.4708 560.7538 246.1824 546.2614 262.6861 534.0034 276.6451 519.904 290.1961 505.5265 304.7197 Z" fill="#EFB50A" fill-rule="evenodd" id=""/>
        <path d="M527.3531 505.893 C541.2908 491.8155 556.1501 477.6138 570.3034 461.4964 586.8442 442.6602 607.4069 416.8837 607.0765 381.2766 606.7526 346.3746 586.5906 321.1713 570.3034 302.6239 556.1501 286.5065 541.2908 272.3048 527.3531 258.2273 513.4544 244.4684 499.2527 229.6091 483.1353 215.4558 464.2991 198.915 438.5226 178.3523 402.9155 178.6827 368.0135 179.0066 342.8102 199.1686 324.2628 215.4558 308.1454 229.6091 293.9437 244.4684 279.8662 258.4061 266.1073 272.3048 251.248 286.5065 237.0947 302.6239 220.5539 321.4601 199.9912 347.2366 200.3216 382.8437 200.6455 417.7457 220.8075 442.949 237.0947 461.4964 251.248 477.6138 266.1073 491.8155 280.045 505.893 293.9437 519.6519 308.1454 534.5112 324.2628 548.6645 343.099 565.2053 368.8755 585.7681 404.4826 585.4376 439.3846 585.1137 464.5879 564.9517 483.1353 548.6645 499.2527 534.5112 513.4544 519.6519 527.3531 505.893 Z M491.9982 470.5381 C477.6534 484.7368 464.1024 498.8362 450.1434 511.0942 433.8896 525.3672 417.4166 535.3154 404.0186 535.4397 390.47 535.5655 373.7584 525.5866 357.2547 511.0942 343.2957 498.8362 329.7447 484.7368 315.2211 470.3593 301.0224 456.0145 286.923 442.4635 274.6651 428.5045 260.392 412.2507 250.4438 395.7777 250.3195 382.3797 250.1937 368.8311 260.1726 352.1195 274.6651 335.6158 286.923 321.6568 301.0224 308.1058 315.3999 293.5822 329.7447 279.3835 343.2957 265.2841 357.2547 253.0262 373.5085 238.7531 389.9815 228.8049 403.3795 228.6806 416.9281 228.5548 433.6397 238.5337 450.1434 253.0262 464.1024 265.2841 477.6534 279.3835 492.177 293.761 506.3757 308.1058 520.4751 321.6568 532.733 335.6158 547.0061 351.8696 556.9543 368.3427 557.0786 381.7406 557.2044 395.2892 547.2255 412.0008 532.733 428.5045 520.4751 442.4635 506.3757 456.0145 491.9982 470.5381 Z" fill="#D2E3F8" fill-rule="evenodd" id="{Super_Ellipse}_Copy_2"/>
        <path d="M504.3138 305.9216 C514.3025 315.903 523.9866 325.6556 532.733 335.6158 534.7369 337.8978 536.6555 340.184 538.4737 342.4655 539.2774 341.6651 540.0799 340.868 540.8814 340.0746 551.5646 329.2842 562.7892 318.4209 573.8224 306.6779 572.6366 305.2922 571.4602 303.9413 570.3034 302.6239 560.1637 291.0771 549.6617 280.5136 539.3958 270.2745 528.8626 281.6093 517.2876 292.8391 505.5265 304.7197 505.1217 305.1205 504.7175 305.5211 504.3138 305.9216 Z" fill="#EFB50A" fill-rule="evenodd" id="{Super_Ellipse}_Copy_3"/>
        <path d="M281.5306 328.0274 C292.0638 316.6926 303.6388 305.4628 315.3999 293.5822 315.8047 293.1815 316.209 292.7808 316.6126 292.3803 306.6239 282.3989 296.9399 272.6463 288.1934 262.6861 286.1896 260.4042 284.2711 258.1181 282.453 255.8367 281.5901 256.6964 280.7279 257.553 279.8662 258.4061 269.3208 269.0587 258.1289 279.8893 247.104 291.6239 248.2898 293.0096 249.4662 294.3606 250.623 295.678 260.7627 307.2248 271.2647 317.7883 281.5306 328.0274 Z" fill="#D2E3F8" fill-rule="evenodd" id="{Super_Ellipse}_Copy_3"/>
      </g>
    </g>
  </g>
</svg>
