<svg role="img" viewBox="0 0 80 80" xmlns="http://www.w3.org/2000/svg" id="N8n--Streamline-Simple-Icons" height="80" width="80">
  <desc>
    N8n Streamline Icon: https://streamlinehq.com
  </desc>
  <title>n8n</title>
  <path d="M71.57900000000001 18.947333333333333c-3.9240000000000004 0 -7.221000000000001 2.683666666666667 -8.156 6.315666666666667h-9.651666666666667c-4.116666666666667 0 -7.630000000000001 2.976666666666667 -8.306666666666667 7.036666666666668l-0.34600000000000003 2.0766666666666667a4.21 4.21 0 0 1 -4.153333333333333 3.518333333333334H37.63c-0.9350000000000002 -3.6319999999999997 -4.232 -6.315666666666667 -8.156 -6.315666666666667s-7.221000000000001 2.683666666666667 -8.155666666666667 6.315666666666667H16.576666666666668c-0.9350000000000002 -3.6319999999999997 -4.232 -6.315666666666667 -8.156 -6.315666666666667C3.7703333333333333 31.578999999999997 0 35.349 0 40s3.77 8.421000000000001 8.421000000000001 8.421000000000001c3.9240000000000004 0 7.221000000000001 -2.683666666666667 8.156 -6.315666666666667h4.741c0.9346666666666666 3.6319999999999997 4.232 6.315666666666667 8.155666666666667 6.315666666666667 3.9240000000000004 0 7.221000000000001 -2.683666666666667 8.156 -6.315666666666667h3.336a4.21 4.21 0 0 1 4.1530000000000005 3.518333333333334l0.34600000000000003 2.0766666666666667c0.6766666666666667 4.0600000000000005 4.1899999999999995 7.036666666666668 8.306666666666667 7.036666666666668h1.2306666666666666c0.9346666666666666 3.6316666666666664 4.232 6.315666666666667 8.156 6.315666666666667 4.650666666666667 0 8.421000000000001 -3.77 8.421000000000001 -8.421000000000001s-3.77 -8.421000000000001 -8.421000000000001 -8.421000000000001c-3.9240000000000004 0 -7.221333333333333 2.6833333333333336 -8.156 6.315666666666667h-1.2306666666666666a4.21 4.21 0 0 1 -4.153333333333333 -3.518333333333334l-0.3456666666666667 -2.0766666666666667A8.4 8.4 0 0 0 46.535666666666664 40a8.4 8.4 0 0 0 2.736666666666667 -4.931333333333334l0.34600000000000003 -2.0766666666666667a4.21 4.21 0 0 1 4.1530000000000005 -3.518333333333334h9.651666666666667c0.9350000000000002 3.6319999999999997 4.232 6.315666666666667 8.156 6.315666666666667 4.650666666666667 0 8.421000000000001 -3.77 8.421000000000001 -8.421000000000001s-3.77 -8.421000000000001 -8.421000000000001 -8.421000000000001m0 4.2106666666666674a4.21 4.21 0 0 1 4.210333333333333 4.210333333333333 4.21 4.21 0 0 1 -4.210333333333333 4.2106666666666674 4.21 4.21 0 0 1 -4.2106666666666674 -4.2106666666666674 4.21 4.21 0 0 1 4.2106666666666674 -4.210333333333333M8.421000000000001 35.78933333333334A4.21 4.21 0 0 1 12.631666666666666 40a4.21 4.21 0 0 1 -4.2106666666666674 4.2106666666666674A4.21 4.21 0 0 1 4.2106666666666674 40a4.21 4.21 0 0 1 4.210333333333333 -4.2106666666666674m21.052666666666667 0A4.21 4.21 0 0 1 33.684333333333335 40a4.21 4.21 0 0 1 -4.2106666666666674 4.2106666666666674A4.21 4.21 0 0 1 25.263333333333332 40a4.21 4.21 0 0 1 4.2106666666666674 -4.2106666666666674m33.684333333333335 12.631666666666666a4.21 4.21 0 0 1 4.210333333333333 4.2106666666666674 4.21 4.21 0 0 1 -4.210333333333333 4.210333333333333 4.21 4.21 0 0 1 -4.2106666666666674 -4.210333333333333 4.21 4.21 0 0 1 4.2106666666666674 -4.2106666666666674" fill="#d85e72" stroke-width="3.3333"></path>
</svg>