<svg xmlns="http://www.w3.org/2000/svg"  viewBox="0 0 48 48" width="50px" height="50px"><path fill="#3dd9eb" d="M38.5,10.5L38.5,10.5c-0.6-1.7-2.4-2.5-4.1-1.9L6.1,18.9c-1.7,0.6-2.5,2.4-1.9,4.1l0,0c0.6,1.7,2.4,2.5,4.1,1.9	l28.3-10.3C38.2,14,39.1,12.1,38.5,10.5z"/><path fill="#3ddab4" d="M23,43.8L23,43.8c1.7-0.6,2.5-2.4,1.9-4.1L14.6,11.4c-0.6-1.7-2.4-2.5-4.1-1.9l0,0c-1.7,0.6-2.5,2.4-1.9,4.1	l10.3,28.3C19.5,43.6,21.3,44.4,23,43.8z"/><rect width="6.4" height="6.4" x="10.9" y="16.2" fill="#00b3d7" transform="rotate(-19.999 14.056 19.364)"/><path fill="#f5bc00" d="M37.5,38.5L37.5,38.5c1.7-0.6,2.5-2.4,1.9-4.1L29.1,6.1c-0.6-1.7-2.4-2.5-4.1-1.9l0,0c-1.7,0.6-2.5,2.4-1.9,4.1	l10.3,28.3C34,38.2,35.9,39.1,37.5,38.5z"/><rect width="6.4" height="6.4" x="25.4" y="10.9" fill="#eb7900" transform="rotate(-19.999 28.636 14.057)"/><path fill="#f55376" d="M43.8,25L43.8,25c-0.6-1.7-2.4-2.5-4.1-1.9L11.4,33.4c-1.7,0.6-2.5,2.4-1.9,4.1l0,0c0.6,1.7,2.4,2.5,4.1,1.9	l28.3-10.3C43.6,28.5,44.4,26.7,43.8,25z"/><rect width="6.4" height="6.4" x="16.2" y="30.7" fill="#00b569" transform="rotate(-19.999 19.363 33.944)"/><rect width="6.4" height="6.4" x="30.7" y="25.4" fill="#eb0000" transform="rotate(-19.999 33.943 28.637)"/></svg>